<svg xmlns="http://www.w3.org/2000/svg" xmlns:xlink="http://www.w3.org/1999/xlink"><symbol id="delete" viewBox="0 0 20 26">
<path d="M1.42857 23.1111C1.42857 24.7 2.71429 26 4.28571 26H15.7143C17.2857 26 18.5714 24.7 18.5714 23.1111V5.77778H1.42857V23.1111ZM4.28571 8.66667H15.7143V23.1111H4.28571V8.66667ZM15 1.44444L13.5714 0H6.42857L5 1.44444H0V4.33333H20V1.44444H15Z" fill="#FF5A5A"/>
</symbol><symbol id="edit" viewBox="0 0 20 19">
<path d="M8 18.25L12 14.25H20V18.25H8ZM2 16.25H3.4L12.025 7.625L10.625 6.225L2 14.85V16.25ZM16.3 6.175L12.05 1.975L13.45 0.575C13.8333 0.191667 14.3043 0 14.863 0C15.421 0 15.8917 0.191667 16.275 0.575L17.675 1.975C18.0583 2.35833 18.2583 2.821 18.275 3.363C18.2917 3.90433 18.1083 4.36667 17.725 4.75L16.3 6.175ZM14.85 7.65L4.25 18.25H0V14L10.6 3.4L14.85 7.65ZM11.325 6.925L10.625 6.225L12.025 7.625L11.325 6.925Z" fill="black"/>
</symbol><symbol id="plus" viewBox="0 0 24 24">
<path d="M4 12H20M12 4V20" stroke="" stroke-width="2" stroke-linecap="round" stroke-linejoin="round"/>
</symbol></svg>